<?xml version="1.0" encoding="utf-8"?>
<!-- Generator: Adobe Illustrator 16.0.0, SVG Export Plug-In . SVG Version: 6.00 Build 0)  -->
<!DOCTYPE svg PUBLIC "-//W3C//DTD SVG 1.1//EN" "http://www.w3.org/Graphics/SVG/1.1/DTD/svg11.dtd">
<svg version="1.1" id="Layer_1" xmlns="http://www.w3.org/2000/svg" xmlns:xlink="http://www.w3.org/1999/xlink" x="0px" y="0px"
	 width="60px" height="60px" viewBox="0 0 60 60" enable-background="new 0 0 60 60" xml:space="preserve">
<g>
	<path fill="#808DAA" d="M31.012,31.334h1v0.516c0,0,0.164,1.48,1.754,2.352c1.592,0.873,5.074,4.882,9.406,6.713
		c4.328,1.828,3.992,4.267,2.316,4.876c-1.678,0.608-3.951,0.959-6.344,0.872c-2.396-0.086-5.486,0.261-9.107-3.137
		c-3.623-3.401-5.033-3.401-6.449-3.834c-1.412-0.436-4.24-0.959-3.27-5.924c0,0,0.443-1.918,1.15-2.27c0,0-1.766,0.179-1.854-1.218
		c0,0-2.827-0.262-1.679-1.655c0,0-2.299-1.043-1.59-1.918c0,0-2.652-1.565-0.885-2.175c0,0-2.648-2.354-1.148-2.267
		c0,0-1.807-2.265-0.459-2.178c0,0-0.779-5.053,1.166-3.05c0,0-0.707-3.466,1.679-0.472c2.386,2.997,3.448,2.912,3.448,2.912
		s-0.797-2.79,0.617-2.178c0,0,0.355-4.922,1.855-2.59c0,0,0.971-3.114,1.502,0c0.531,3.114,2.477,4.092,4.506,5.658
		c2.033,1.568,4.879,3.765,2.758,10.765"/>
</g>
</svg>
