<?xml version="1.0" encoding="utf-8"?>
<!-- Generator: Adobe Illustrator 16.0.0, SVG Export Plug-In . SVG Version: 6.00 Build 0)  -->
<!DOCTYPE svg PUBLIC "-//W3C//DTD SVG 1.1//EN" "http://www.w3.org/Graphics/SVG/1.1/DTD/svg11.dtd">
<svg version="1.1" id="Layer_1" xmlns="http://www.w3.org/2000/svg" xmlns:xlink="http://www.w3.org/1999/xlink" x="0px" y="0px"
	 width="60px" height="60px" viewBox="0 0 60 60" enable-background="new 0 0 60 60" xml:space="preserve">
<g>
	<path fill="#618FCA" d="M29.999,13.088c-9.475,0-17.154,7.572-17.154,16.914c0,9.342,7.68,16.91,17.154,16.91
		c9.477,0,17.156-7.568,17.156-16.91C47.155,20.66,39.476,13.088,29.999,13.088 M35.718,22.343c1.051,0,1.906,1.155,1.906,2.582
		c0,1.427-0.855,2.587-1.906,2.587c-1.055,0-1.906-1.16-1.906-2.587C33.812,23.498,34.663,22.343,35.718,22.343 M24.521,22.343
		c1.053,0,1.905,1.155,1.905,2.582c0,1.427-0.853,2.587-1.905,2.587c-1.052,0-1.908-1.16-1.908-2.587
		C22.612,23.498,23.469,22.343,24.521,22.343 M30.364,41.665c-6.641,0-12.027-4.523-12.027-10.103c0-0.283,0.02-0.56,0.045-0.834
		c0.504,5.19,5.674,9.27,11.982,9.27c6.307,0,11.479-4.079,11.982-9.27c0.027,0.274,0.041,0.551,0.041,0.834
		C42.388,37.142,37.007,41.665,30.364,41.665"/>
</g>
</svg>
