<?xml version="1.0" encoding="utf-8"?>
<!-- Generator: Adobe Illustrator 16.0.0, SVG Export Plug-In . SVG Version: 6.00 Build 0)  -->
<!DOCTYPE svg PUBLIC "-//W3C//DTD SVG 1.1//EN" "http://www.w3.org/Graphics/SVG/1.1/DTD/svg11.dtd">
<svg version="1.1" id="Layer_1" xmlns="http://www.w3.org/2000/svg" xmlns:xlink="http://www.w3.org/1999/xlink" x="0px" y="0px"
	 width="60px" height="60px" viewBox="0 0 60 60" enable-background="new 0 0 60 60" xml:space="preserve">
<g>
	<path fill="#27394F" d="M30.029,50c18.322-10,15.73-34.637,15.73-34.637c-12.281,0-15.73-5.363-15.73-5.363h-0.061
		c0,0-3.449,5.363-15.729,5.363c0,0-2.594,24.637,15.729,34.637H30.029z"/>
	<path fill="none" stroke="#FFFFFF" stroke-width="0.36" stroke-miterlimit="10" d="M29.383,45.254
		C18.615,38.576,17.506,24.92,17.529,19.361l0.008-1.064l1.074-0.074c5.582-0.391,8.895-2.062,10.689-3.4L30,14.307l0.701,0.516
		c1.793,1.338,5.109,3.01,10.688,3.4l1.076,0.074l0.002,1.064c0.021,5.559-1.084,19.215-11.85,25.893l-0.619,0.383L29.383,45.254z"
		/>
	<line fill="none" stroke="#FFFFFF" stroke-width="0.36" stroke-miterlimit="10" x1="24.867" y1="22.967" x2="35.133" y2="33.088"/>
	<line fill="none" stroke="#FFFFFF" stroke-width="0.36" stroke-miterlimit="10" x1="24.867" y1="33.088" x2="35.133" y2="22.967"/>
</g>
</svg>
