<?xml version="1.0" encoding="utf-8"?>
<!-- Generator: Adobe Illustrator 16.0.0, SVG Export Plug-In . SVG Version: 6.00 Build 0)  -->
<!DOCTYPE svg PUBLIC "-//W3C//DTD SVG 1.1//EN" "http://www.w3.org/Graphics/SVG/1.1/DTD/svg11.dtd">
<svg version="1.1" id="Layer_1" xmlns="http://www.w3.org/2000/svg" xmlns:xlink="http://www.w3.org/1999/xlink" x="0px" y="0px"
	 width="60px" height="60px" viewBox="0 0 60 60" enable-background="new 0 0 60 60" xml:space="preserve">
<g>
	<path fill="#77818C" d="M27.273,13.121c1.309,1.207,2.082,3.081,2.082,5.091c0,3.528-2.367,6.396-5.277,6.396
		c-1.924,0-3.698-1.284-4.617-3.312c-0.04,0.029-0.083,0.054-0.122,0.081c-1.515,0.994-1.363,2.374-1.138,3.11
		c0.513,1.675,2.51,3.481,4.842,3.481c1.695,0,3.23-0.945,4.439-2.745c0.111-0.217,0.504-0.639,1.158-0.639
		c0.436,0,0.912,0.189,1.418,0.553c0.258,0.188,0.535,0.429,0.854,0.705c1.185,1.036,2.81,2.455,5.138,2.455
		c0.825,0,1.696-0.183,2.586-0.547c1.356-0.55,2.183-1.579,2.453-3.056c0.493-2.646-0.953-6.138-2.558-7.62
		c-2.354-2.178,2-7.892,3.41-9.609l-8.914-2.065C32.449,6.235,30.05,9.64,27.273,13.121"/>
	<path fill="#77828D" d="M24.045,13.637c-2.053,0-3.721,2.089-3.721,4.656c0,2.565,1.668,4.655,3.721,4.655
		c2.053,0,3.719-2.09,3.719-4.655C27.763,15.726,26.097,13.637,24.045,13.637"/>
	<path fill="#77818C" d="M35.307,32.191c0.248-0.657,0.144-1.202,0.043-1.5c-0.217,0.05-0.438,0.074-0.662,0.074
		c-1.452,0-2.73-1.062-3.284-1.605c-0.53,0.613-1.175,0.929-1.92,0.929c-1.08,0-2.063-0.681-2.489-1.018
		c-1.035,0.728-2.164,1.098-3.367,1.098c-1.605,0-2.906-0.662-3.506-1.027c-0.724,1.713,0.026,2.308,0.057,2.33l0.066,0.046
		l0.04,0.079c2.894,5.732,1.957,12.988,1.394,17.327c-0.187,1.468-0.352,2.738-0.221,3.079c0.332,0.882,3.055,1.63,4.965,1.952
		c-0.324-2.758-1.644-16.663,4.458-18.674C33.307,34.48,34.84,33.415,35.307,32.191"/>
	<path fill="#77818C" d="M36.465,32.47c-0.414,1.563-1.48,3.519-4.177,4.315l-0.071,0.025l-0.07-0.009
		c0,0.004-2.78,0.373-2.364,17.325l1.248,0.474c-0.166-2.434-0.595-12.19,2.991-16.465C36.356,35.359,36.625,33.706,36.465,32.47"/>
</g>
</svg>
