<?xml version="1.0" encoding="utf-8"?>
<!-- Generator: Adobe Illustrator 16.0.0, SVG Export Plug-In . SVG Version: 6.00 Build 0)  -->
<!DOCTYPE svg PUBLIC "-//W3C//DTD SVG 1.1//EN" "http://www.w3.org/Graphics/SVG/1.1/DTD/svg11.dtd">
<svg version="1.1" id="Layer_1" xmlns="http://www.w3.org/2000/svg" xmlns:xlink="http://www.w3.org/1999/xlink" x="0px" y="0px"
	 width="60px" height="60px" viewBox="0 0 60 60" enable-background="new 0 0 60 60" xml:space="preserve">
<g>
	<polygon fill="none" stroke="#5C6777" stroke-miterlimit="10" points="29.87,23.306 34.898,19.821 32.88,25.543 39.005,26.059 
		33.731,29.167 40.332,31.513 32.019,32.484 35.667,37.691 28.546,33.938 25.034,38.906 24.937,32.846 15.648,36.07 22.885,29.731 
		17.312,27.18 23.342,26.036 17.312,16.884 26.104,23.498 27.682,17.647 	"/>
	<polygon fill="#565B63" points="31.001,47.961 22.001,47.961 22.001,31.961 24.79,31.961 25.657,33.303 27.397,31.625 
		29.03,34.648 29.901,31.961 31.001,31.961 	"/>
	<polygon fill="#565B63" points="36.862,12.834 43.301,19.181 32.038,30.284 30.348,28.616 34.451,23.641 28.499,26.796 
		28.267,25.143 26.729,25.051 25.602,23.938 	"/>
	<polygon fill="#565B63" points="44.352,12.971 41.272,16 40.331,15.073 43.412,12.039 	"/>
</g>
</svg>
