<?xml version="1.0" encoding="utf-8"?>
<!-- Generator: Adobe Illustrator 16.0.0, SVG Export Plug-In . SVG Version: 6.00 Build 0)  -->
<!DOCTYPE svg PUBLIC "-//W3C//DTD SVG 1.1//EN" "http://www.w3.org/Graphics/SVG/1.1/DTD/svg11.dtd">
<svg version="1.1" id="Layer_1" xmlns="http://www.w3.org/2000/svg" xmlns:xlink="http://www.w3.org/1999/xlink" x="0px" y="0px"
	 width="60px" height="60px" viewBox="0 0 60 60" enable-background="new 0 0 60 60" xml:space="preserve">
<g>
	<path fill="#FFFFFF" d="M31.286,9.472"/>
	<path fill="#FFFFFF" stroke="#263851" stroke-miterlimit="10" d="M32.489,9.059"/>
	<path fill="#FFFFFF" stroke="#263851" stroke-miterlimit="10" d="M30.255,9.04c8.812-0.219,13.143,9.619,10.119,15.887
		c-1.037,2.156-2.197,4.161-3.076,6.379c-0.67,1.691-1.008,3.463-1.438,5.24c-0.438,1.832-0.937,2.234-2.875,2.24
		c-2.06,0.004-4.119,0.004-6.183-0.019c-1.459-0.015-2.139-0.47-2.372-1.873c-0.712-4.298-2.509-8.16-4.521-11.986
		C16.341,18.124,20.661,8.634,30.255,9.04L30.255,9.04z"/>
	<path fill="#394E62" d="M29.279,50.972c-0.608,0-1.219-0.598-1.827-1.033c0.047-0.077,0.096,0.033,0.141,0.033h4.986
		c-0.181,1-1.084,1-1.705,1H29.279z"/>
	<path fill="#394E62" d="M29.072,43.875c-1,0-1.956-0.017-3.185,0.006c-0.617,0.012-0.662-0.2-0.674-0.851
		c-0.008-0.663,0.437-0.858,1.041-0.858c2.459,0.012,4.982,0.016,7.44,0.011c0.591-0.004,0.97,0.167,0.964,0.839
		c-0.007,0.652-0.791,0.865-1.41,0.854c-1.227-0.021-3.177-0.006-4.177-0.006V43.875L29.072,43.875z"/>
	<path fill="#394E62" d="M30.126,39.731c1.229,0,2.459,0.019,3.686-0.01c0.648-0.015,0.891,0.253,0.879,0.879
		c-0.012,0.604-0.307,0.795-0.874,0.791c-2.489-0.013-4.979-0.019-7.47-0.006c-0.635,0.004-0.891-0.239-0.876-0.878
		c0.014-0.609,0.307-0.788,0.87-0.782C27.604,39.744,28.864,39.731,30.126,39.731"/>
	<path fill="#394E62" d="M29.072,48.875c-1,0-1.956-0.018-3.185,0.006c-0.617,0.012-0.662-0.2-0.674-0.852
		c-0.008-0.662,0.437-0.857,1.041-0.857c2.459,0.012,4.982,0.016,7.44,0.011c0.591-0.004,0.97,0.167,0.964,0.839
		c-0.007,0.652-0.791,0.865-1.41,0.854c-1.227-0.021-3.177-0.006-4.177-0.006V48.875L29.072,48.875z"/>
	<path fill="#394E62" d="M30.126,44.731c1.229,0,2.459,0.019,3.686-0.01c0.648-0.015,0.891,0.253,0.879,0.879
		c-0.012,0.604-0.307,0.795-0.874,0.791c-2.489-0.013-4.979-0.019-7.47-0.006c-0.635,0.004-0.891-0.239-0.876-0.878
		c0.014-0.609,0.307-0.788,0.87-0.782C27.604,44.744,28.864,44.731,30.126,44.731"/>
</g>
</svg>
