<?xml version="1.0" encoding="utf-8"?>
<!-- Generator: Adobe Illustrator 16.0.0, SVG Export Plug-In . SVG Version: 6.00 Build 0)  -->
<!DOCTYPE svg PUBLIC "-//W3C//DTD SVG 1.1//EN" "http://www.w3.org/Graphics/SVG/1.1/DTD/svg11.dtd">
<svg version="1.1" id="Layer_1" xmlns="http://www.w3.org/2000/svg" xmlns:xlink="http://www.w3.org/1999/xlink" x="0px" y="0px"
	 width="60px" height="60px" viewBox="0 0 60 60" enable-background="new 0 0 60 60" xml:space="preserve">
<g>
	<path fill="#FFFFFF" d="M19.828,24.082c0-7.418,4.566-13.451,10.172-13.451c5.609,0,10.17,6.033,10.17,13.451
		c0,7.422-4.561,13.455-10.17,13.455C24.395,37.537,19.828,31.504,19.828,24.082"/>
	<path fill="#6292CD" d="M42.578,24.082c0-8.729-5.643-15.825-12.578-15.825c-6.938,0-12.578,7.096-12.578,15.825
		c0,7.804,4.508,14.296,10.418,15.59c0.473,0.771,0.895,1.959,0.346,3.388c-0.254,0.334-0.479,0.769-0.652,1.221
		c-0.004,0.004-0.004,0.044-0.006,0.044h0.002c-0.293,1-0.469,1.62-0.469,2.583c0,2.68,1.318,4.836,2.939,4.836
		c1.625,0,2.939-2.184,2.939-4.863c0-1.574-0.457-2.977-1.162-3.863c-0.391-0.894-0.703-2.133-0.168-3.233
		C37.785,38.785,42.578,32.128,42.578,24.082 M19.828,24.082c0-7.418,4.566-13.451,10.172-13.451c5.609,0,10.17,6.033,10.17,13.451
		c0,7.422-4.561,13.455-10.17,13.455C24.395,37.537,19.828,31.504,19.828,24.082"/>
	<line fill="none" x1="23.096" y1="19.183" x2="27.18" y2="15.157"/>
	<path fill="#93AED1" d="M23.096,19.72c-0.139,0-0.277-0.057-0.385-0.16c-0.211-0.209-0.211-0.545,0-0.756l4.086-4.027
		c0.213-0.208,0.557-0.208,0.768,0c0.215,0.208,0.215,0.548,0,0.757l-4.082,4.026C23.377,19.662,23.234,19.72,23.096,19.72"/>
	<line fill="none" x1="31.562" y1="34.062" x2="35.645" y2="30.037"/>
	<path fill="#93AED1" d="M31.562,34.597c-0.139,0-0.281-0.053-0.383-0.156c-0.217-0.209-0.217-0.545,0-0.756l4.078-4.028
		c0.215-0.208,0.562-0.208,0.77,0c0.215,0.21,0.215,0.551,0,0.759l-4.082,4.025C31.84,34.544,31.699,34.597,31.562,34.597"/>
	<line fill="none" x1="22.789" y1="26.664" x2="34.086" y2="15.524"/>
	<path fill="#93AED1" d="M22.789,27.2c-0.139,0-0.279-0.053-0.385-0.156c-0.213-0.212-0.213-0.549,0-0.757l11.295-11.142
		c0.213-0.207,0.559-0.207,0.77,0c0.211,0.211,0.211,0.553,0,0.761L23.172,27.044C23.066,27.147,22.926,27.2,22.789,27.2"/>
	<line fill="none" x1="25.492" y1="32.093" x2="37.102" y2="20.646"/>
	<path fill="#93AED1" d="M25.492,32.63c-0.137,0-0.277-0.056-0.383-0.158c-0.215-0.209-0.215-0.545,0-0.759l11.607-11.444
		c0.217-0.209,0.559-0.209,0.77,0c0.213,0.207,0.213,0.549,0,0.756L25.875,32.472C25.77,32.574,25.629,32.63,25.492,32.63"/>
</g>
</svg>
